<svg xmlns="http://www.w3.org/2000/svg" width="400" height="800" viewBox="0 0 400 800"><rect width="100%" height="100%" fill="#808080"/><circle cx="267.0" cy="221.2" r="3.3" fill="#000000"/><circle cx="268.6" cy="197.7" r="5.6" fill="#000000"/><circle cx="272.8" cy="180.7" r="5.6" fill="#000000"/><circle cx="284.4" cy="207.4" r="4.2" fill="#000000"/><circle cx="283.9" cy="233.8" r="2.8" fill="#000000"/><circle cx="244.9" cy="230.3" r="2.1" fill="#000000"/><circle cx="237.6" cy="197.8" r="5.2" fill="#000000"/><circle cx="219.6" cy="196.4" r="5.8" fill="#000000"/><circle cx="198.4" cy="187.8" r="7.0" fill="#000000"/><circle cx="239.3" cy="214.1" r="3.9" fill="#000000"/><circle cx="246.2" cy="170.4" r="4.0" fill="#000000"/><circle cx="218.0" cy="238.5" r="4.0" fill="#000000"/><circle cx="244.9" cy="248.1" r="3.4" fill="#000000"/><circle cx="254.4" cy="189.3" r="5.3" fill="#000000"/><circle cx="201.3" cy="263.5" r="1.6" fill="#000000"/><circle cx="228.1" cy="173.3" r="3.6" fill="#000000"/><circle cx="225.6" cy="224.2" r="3.1" fill="none" stroke="#000000" stroke-width="1.7"/><circle cx="271.8" cy="251.3" r="4.6" fill="#000000"/><circle cx="213.1" cy="160.4" r="5.7" fill="#000000"/><circle cx="189.8" cy="238.5" r="6.1" fill="#000000"/><circle cx="222.9" cy="267.7" r="4.2" fill="#000000"/><circle cx="209.6" cy="216.5" r="6.2" fill="#000000"/><circle cx="192.6" cy="203.2" r="6.8" fill="#000000"/><circle cx="250.4" cy="279.0" r="4.3" fill="#000000"/><circle cx="164.9" cy="248.0" r="4.0" fill="none" stroke="#000000" stroke-width="2.2"/><circle cx="264.9" cy="266.4" r="6.2" fill="#000000"/><circle cx="259.2" cy="238.0" r="2.5" fill="#000000"/><circle cx="297.1" cy="217.4" r="3.3" fill="#000000"/><circle cx="256.5" cy="296.5" r="1.7" fill="#000000"/><circle cx="272.6" cy="282.1" r="4.5" fill="#000000"/><circle cx="297.2" cy="272.8" r="7.4" fill="#000000"/><circle cx="288.9" cy="256.7" r="6.2" fill="#000000"/><circle cx="178.1" cy="274.1" r="1.6" fill="#000000"/><circle cx="301.3" cy="289.5" r="7.1" fill="#000000"/><circle cx="228.3" cy="289.1" r="1.8" fill="#000000"/><circle cx="310.2" cy="244.4" r="3.9" fill="none" stroke="#000000" stroke-width="2.2"/><circle cx="166.6" cy="214.8" r="5.2" fill="#000000"/><circle cx="318.5" cy="265.8" r="6.0" fill="#000000"/><circle cx="271.7" cy="306.3" r="2.3" fill="#000000"/><circle cx="176.8" cy="301.9" r="1.4" fill="#000000"/><circle cx="295.5" cy="312.7" r="5.5" fill="#000000"/><circle cx="323.7" cy="306.5" r="2.1" fill="#000000"/><circle cx="159.8" cy="276.2" r="1.9" fill="#000000"/><circle cx="269.0" cy="330.8" r="4.1" fill="#000000"/><circle cx="321.3" cy="284.8" r="4.0" fill="#000000"/><circle cx="320.5" cy="330.7" r="2.0" fill="#000000"/><circle cx="197.3" cy="293.5" r="1.5" fill="#000000"/><circle cx="241.6" cy="306.0" r="1.4" fill="#000000"/><circle cx="180.9" cy="187.1" r="5.8" fill="#000000"/><circle cx="224.4" cy="311.4" r="2.4" fill="#000000"/><circle cx="290.1" cy="343.1" r="3.3" fill="#000000"/><circle cx="138.0" cy="235.9" r="4.5" fill="#000000"/><circle cx="196.2" cy="313.5" r="3.0" fill="#000000"/><circle cx="158.2" cy="292.2" r="1.6" fill="#000000"/><circle cx="153.4" cy="226.1" r="5.3" fill="#000000"/><circle cx="153.9" cy="202.5" r="5.7" fill="#000000"/><circle cx="308.9" cy="357.3" r="2.8" fill="#000000"/><circle cx="128.6" cy="262.3" r="4.7" fill="#000000"/><circle cx="253.4" cy="327.4" r="4.6" fill="none" stroke="#000000" stroke-width="2.5"/><circle cx="191.1" cy="161.6" r="6.6" fill="#000000"/><circle cx="225.3" cy="341.8" r="5.6" fill="#000000"/><circle cx="144.2" cy="314.5" r="4.0" fill="#000000"/><circle cx="188.9" cy="221.4" r="6.4" fill="#000000"/><circle cx="171.3" cy="157.8" r="5.1" fill="#000000"/><circle cx="209.7" cy="131.0" r="6.4" fill="none" stroke="#000000" stroke-width="3.5"/><circle cx="212.9" cy="179.6" r="5.9" fill="#000000"/><circle cx="126.3" cy="220.0" r="5.4" fill="#000000"/><circle cx="288.1" cy="363.2" r="4.0" fill="#000000"/><circle cx="137.0" cy="203.7" r="7.0" fill="#000000"/><circle cx="186.4" cy="328.5" r="5.7" fill="#000000"/><circle cx="163.1" cy="311.5" r="2.7" fill="#000000"/><circle cx="150.6" cy="185.0" r="5.8" fill="#000000"/><circle cx="178.6" cy="128.9" r="4.0" fill="#000000"/><circle cx="108.0" cy="250.8" r="5.7" fill="#000000"/><circle cx="146.6" cy="332.6" r="6.6" fill="#000000"/><circle cx="257.7" cy="357.9" r="5.6" fill="#000000"/><circle cx="192.2" cy="139.9" r="6.2" fill="#000000"/><circle cx="175.4" cy="230.6" r="5.8" fill="#000000"/><circle cx="170.3" cy="337.3" r="6.4" fill="#000000"/><circle cx="129.1" cy="347.6" r="6.1" fill="none" stroke="#000000" stroke-width="3.4"/><circle cx="133.3" cy="299.6" r="2.5" fill="#000000"/><circle cx="110.7" cy="210.8" r="6.3" fill="#000000"/><circle cx="181.7" cy="254.8" r="2.9" fill="#000000"/><circle cx="183.9" cy="354.3" r="5.6" fill="#000000"/><circle cx="148.0" cy="255.1" r="3.8" fill="#000000"/><circle cx="253.3" cy="383.5" r="5.0" fill="#000000"/><circle cx="160.1" cy="128.1" r="3.0" fill="#000000"/><circle cx="147.6" cy="168.0" r="5.7" fill="#000000"/><circle cx="111.5" cy="230.2" r="4.6" fill="#000000"/><circle cx="164.6" cy="357.4" r="6.0" fill="#000000"/><circle cx="223.6" cy="358.5" r="3.4" fill="#000000"/><circle cx="143.1" cy="278.3" r="3.5" fill="#000000"/><circle cx="222.2" cy="120.5" r="5.9" fill="#000000"/><circle cx="210.1" cy="332.7" r="5.8" fill="#000000"/><circle cx="114.6" cy="274.8" r="5.7" fill="#000000"/><circle cx="125.6" cy="173.3" r="5.6" fill="#000000"/><circle cx="271.5" cy="366.8" r="6.3" fill="#000000"/><circle cx="237.7" cy="393.1" r="4.4" fill="#000000"/><circle cx="303.7" cy="332.4" r="2.9" fill="#000000"/><circle cx="267.4" cy="405.5" r="5.2" fill="none" stroke="#000000" stroke-width="2.8"/><circle cx="130.5" cy="326.1" r="6.1" fill="none" stroke="#000000" stroke-width="3.4"/><circle cx="96.4" cy="224.9" r="5.0" fill="#000000"/><circle cx="274.0" cy="349.5" r="5.0" fill="#000000"/><circle cx="242.6" cy="363.9" r="3.3" fill="#000000"/><circle cx="242.8" cy="342.8" r="5.3" fill="#000000"/><circle cx="238.9" cy="266.9" r="5.1" fill="#000000"/><circle cx="159.7" cy="374.2" r="5.9" fill="#000000"/><circle cx="269.3" cy="387.8" r="5.5" fill="none" stroke="#000000" stroke-width="3.0"/><circle cx="108.8" cy="346.0" r="3.7" fill="#000000"/><circle cx="151.9" cy="109.9" r="2.0" fill="#000000"/><circle cx="204.3" cy="350.9" r="5.2" fill="#000000"/><circle cx="323.7" cy="350.6" r="2.3" fill="none" stroke="#000000" stroke-width="1.2"/><circle cx="290.0" cy="400.7" r="4.6" fill="#000000"/><circle cx="106.4" cy="308.7" r="5.1" fill="#000000"/><circle cx="292.3" cy="379.3" r="3.8" fill="#000000"/><circle cx="81.7" cy="344.4" r="3.8" fill="#000000"/><circle cx="244.7" cy="413.0" r="4.2" fill="#000000"/><circle cx="190.5" cy="107.0" r="4.1" fill="#000000"/><circle cx="308.3" cy="375.1" r="3.0" fill="#000000"/><circle cx="183.4" cy="370.6" r="5.3" fill="#000000"/><circle cx="87.3" cy="241.3" r="5.9" fill="#000000"/><circle cx="199.0" cy="84.4" r="4.2" fill="#000000"/><circle cx="323.8" cy="367.3" r="2.7" fill="#000000"/><circle cx="232.0" cy="376.8" r="2.9" fill="#000000"/><circle cx="86.3" cy="267.7" r="7.1" fill="#000000"/><circle cx="124.5" cy="244.8" r="4.6" fill="#000000"/><circle cx="214.8" cy="398.5" r="2.7" fill="#000000"/><circle cx="86.6" cy="289.5" r="4.7" fill="#000000"/><circle cx="197.4" cy="393.4" r="1.8" fill="#000000"/><circle cx="199.9" cy="368.6" r="4.7" fill="#000000"/><circle cx="114.6" cy="370.3" r="2.9" fill="#000000"/><circle cx="258.7" cy="423.2" r="5.2" fill="#000000"/><circle cx="179.0" cy="410.5" r="4.6" fill="#000000"/><circle cx="141.4" cy="364.3" r="5.7" fill="#000000"/><circle cx="119.1" cy="196.4" r="6.9" fill="#000000"/><circle cx="209.1" cy="106.7" r="5.0" fill="#000000"/><circle cx="235.5" cy="325.6" r="5.5" fill="#000000"/><circle cx="166.8" cy="90.4" r="1.6" fill="#000000"/><circle cx="126.4" cy="392.4" r="4.0" fill="#000000"/><circle cx="110.1" cy="326.0" r="4.8" fill="#000000"/><circle cx="100.3" cy="362.6" r="1.1" fill="#000000"/><circle cx="176.1" cy="388.0" r="5.4" fill="none" stroke="#000000" stroke-width="3.0"/><circle cx="177.4" cy="76.7" r="3.6" fill="#000000"/><circle cx="214.8" cy="414.7" r="3.8" fill="#000000"/><circle cx="221.3" cy="92.7" r="5.1" fill="#000000"/><circle cx="108.5" cy="290.3" r="5.3" fill="#000000"/><circle cx="274.5" cy="437.3" r="5.3" fill="#000000"/><circle cx="144.1" cy="381.0" r="5.2" fill="#000000"/><circle cx="258.0" cy="461.3" r="5.3" fill="#000000"/><circle cx="144.4" cy="401.3" r="4.4" fill="#000000"/><circle cx="83.2" cy="306.1" r="3.4" fill="#000000"/><circle cx="84.6" cy="328.0" r="4.5" fill="#000000"/><circle cx="128.3" cy="424.5" r="7.1" fill="#000000"/><circle cx="160.7" cy="407.3" r="5.6" fill="#000000"/><circle cx="246.5" cy="435.0" r="3.4" fill="none" stroke="#000000" stroke-width="1.9"/><circle cx="112.6" cy="403.2" r="4.4" fill="#000000"/><circle cx="107.7" cy="385.2" r="3.3" fill="#000000"/><circle cx="147.1" cy="93.7" r="2.1" fill="#000000"/><circle cx="198.7" cy="413.0" r="3.5" fill="#000000"/><circle cx="233.8" cy="463.5" r="4.1" fill="#000000"/><circle cx="253.6" cy="484.9" r="4.1" fill="#000000"/><circle cx="276.0" cy="460.4" r="5.8" fill="#000000"/><circle cx="84.4" cy="382.7" r="2.5" fill="#000000"/><circle cx="231.4" cy="429.3" r="2.3" fill="#000000"/><circle cx="231.5" cy="446.9" r="2.9" fill="#000000"/><circle cx="286.2" cy="298.9" r="5.1" fill="#000000"/><circle cx="219.5" cy="476.3" r="4.6" fill="#000000"/><circle cx="232.5" cy="133.2" r="5.9" fill="#000000"/><circle cx="170.2" cy="434.9" r="2.7" fill="#000000"/><circle cx="234.9" cy="491.2" r="7.1" fill="#000000"/><circle cx="277.4" cy="479.7" r="4.8" fill="#000000"/><circle cx="158.1" cy="391.5" r="5.8" fill="#000000"/><circle cx="258.7" cy="512.6" r="1.9" fill="#000000"/><circle cx="241.2" cy="104.8" r="6.1" fill="#000000"/><circle cx="225.9" cy="508.4" r="6.8" fill="#000000"/><circle cx="81.7" cy="362.6" r="1.3" fill="#000000"/><circle cx="154.5" cy="450.2" r="4.1" fill="#000000"/><circle cx="263.2" cy="533.4" r="1.1" fill="#000000"/><circle cx="153.3" cy="426.9" r="4.5" fill="#000000"/><circle cx="266.2" cy="495.6" r="1.3" fill="#000000"/><circle cx="250.3" cy="77.1" r="3.5" fill="#000000"/><circle cx="234.2" cy="75.0" r="1.7" fill="#000000"/><circle cx="247.5" cy="501.1" r="5.1" fill="#000000"/><circle cx="150.4" cy="466.0" r="3.9" fill="#000000"/><circle cx="277.6" cy="510.3" r="2.3" fill="#000000"/><circle cx="221.5" cy="524.9" r="5.6" fill="#000000"/><circle cx="260.7" cy="560.1" r="4.2" fill="#000000"/><circle cx="181.0" cy="450.6" r="4.6" fill="#000000"/><circle cx="232.6" cy="542.5" r="5.2" fill="#000000"/><circle cx="235.1" cy="56.0" r="1.9" fill="#000000"/><circle cx="205.7" cy="64.7" r="3.6" fill="#000000"/><circle cx="165.9" cy="479.9" r="4.7" fill="#000000"/><circle cx="221.7" cy="45.6" r="3.4" fill="none" stroke="#000000" stroke-width="1.9"/><circle cx="149.8" cy="496.6" r="3.0" fill="#000000"/><circle cx="125.9" cy="461.2" r="3.2" fill="#000000"/><circle cx="192.8" cy="38.1" r="3.0" fill="#000000"/><circle cx="178.2" cy="501.8" r="4.3" fill="#000000"/><circle cx="176.4" cy="58.9" r="4.3" fill="#000000"/><circle cx="245.6" cy="527.0" r="4.1" fill="#000000"/><circle cx="247.0" cy="579.3" r="5.4" fill="#000000"/><circle cx="231.4" cy="600.4" r="7.5" fill="#000000"/><circle cx="245.0" cy="563.1" r="4.7" fill="#000000"/><circle cx="141.9" cy="438.8" r="6.8" fill="#000000"/><circle cx="225.9" cy="575.8" r="4.9" fill="#000000"/><circle cx="173.4" cy="465.3" r="4.6" fill="#000000"/><circle cx="271.6" cy="579.2" r="4.9" fill="#000000"/><circle cx="250.2" cy="623.1" r="3.9" fill="#000000"/><circle cx="276.5" cy="620.5" r="3.5" fill="#000000"/><circle cx="174.3" cy="41.2" r="5.7" fill="#000000"/><circle cx="250.7" cy="601.3" r="6.8" fill="#000000"/><circle cx="139.3" cy="478.1" r="2.7" fill="#000000"/><circle cx="250.1" cy="543.5" r="3.4" fill="#000000"/><circle cx="137.0" cy="523.9" r="5.0" fill="#000000"/><circle cx="228.9" cy="619.0" r="5.3" fill="#000000"/><circle cx="163.0" cy="68.3" r="4.1" fill="#000000"/><circle cx="160.2" cy="512.4" r="5.1" fill="#000000"/><circle cx="171.8" cy="523.9" r="6.0" fill="#000000"/><circle cx="274.4" cy="548.3" r="2.5" fill="#000000"/><circle cx="123.1" cy="500.4" r="1.6" fill="#000000"/><circle cx="130.3" cy="550.9" r="3.8" fill="#000000"/><circle cx="157.1" cy="534.0" r="6.2" fill="#000000"/><circle cx="158.7" cy="558.1" r="3.8" fill="#000000"/><circle cx="266.8" cy="594.5" r="6.1" fill="#000000"/><circle cx="146.0" cy="569.3" r="2.4" fill="#000000"/><circle cx="154.5" cy="594.8" r="4.0" fill="#000000"/><circle cx="226.5" cy="644.0" r="3.6" fill="#000000"/><circle cx="244.5" cy="646.5" r="3.3" fill="#000000"/><circle cx="175.5" cy="546.5" r="5.2" fill="#000000"/><circle cx="166.7" cy="583.6" r="4.0" fill="#000000"/><circle cx="173.9" cy="603.3" r="4.1" fill="#000000"/><circle cx="165.8" cy="632.6" r="4.0" fill="#000000"/><circle cx="149.0" cy="613.9" r="3.4" fill="#000000"/><circle cx="121.9" cy="534.8" r="5.2" fill="#000000"/><circle cx="167.6" cy="658.8" r="2.3" fill="#000000"/><circle cx="134.7" cy="601.1" r="3.3" fill="#000000"/><circle cx="144.8" cy="641.4" r="2.7" fill="none" stroke="#000000" stroke-width="1.5"/><circle cx="140.2" cy="672.3" r="3.4" fill="#000000"/><circle cx="267.0" cy="645.1" r="2.2" fill="#000000"/><circle cx="224.2" cy="661.7" r="2.7" fill="#000000"/><circle cx="154.7" cy="680.4" r="2.0" fill="#000000"/><circle cx="127.3" cy="578.5" r="2.5" fill="#000000"/><circle cx="137.8" cy="694.1" r="1.1" fill="#000000"/><circle cx="135.1" cy="624.2" r="2.3" fill="#000000"/><circle cx="253.9" cy="662.7" r="2.7" fill="#000000"/><circle cx="172.6" cy="567.4" r="3.4" fill="#000000"/><circle cx="167.2" cy="705.3" r="1.5" fill="#000000"/><circle cx="243.6" cy="681.2" r="3.8" fill="#000000"/><circle cx="270.0" cy="664.1" r="2.6" fill="#000000"/><circle cx="263.1" cy="697.5" r="7.8" fill="#000000"/><circle cx="272.5" cy="680.0" r="4.5" fill="#000000"/><circle cx="227.5" cy="687.7" r="4.0" fill="#000000"/><circle cx="146.0" cy="546.0" r="4.9" fill="#000000"/><circle cx="135.3" cy="654.6" r="3.3" fill="#000000"/><circle cx="171.8" cy="721.5" r="4.7" fill="#000000"/><circle cx="249.6" cy="709.4" r="5.2" fill="#000000"/><circle cx="267.6" cy="719.4" r="3.7" fill="#000000"/><circle cx="139.6" cy="710.1" r="1.5" fill="#000000"/><circle cx="139.7" cy="735.8" r="3.5" fill="#000000"/><circle cx="171.0" cy="685.9" r="1.6" fill="#000000"/><circle cx="142.5" cy="754.7" r="4.7" fill="#000000"/><circle cx="154.5" cy="726.8" r="4.7" fill="#000000"/><circle cx="169.7" cy="758.1" r="4.9" fill="#000000"/><circle cx="235.1" cy="723.9" r="2.5" fill="#000000"/><circle cx="262.2" cy="743.8" r="2.2" fill="none" stroke="#000000" stroke-width="1.2"/><circle cx="178.7" cy="738.2" r="5.8" fill="#000000"/><circle cx="238.8" cy="742.9" r="2.3" fill="#000000"/><circle cx="229.7" cy="706.6" r="4.2" fill="#000000"/><circle cx="221.3" cy="734.3" r="3.1" fill="#000000"/><circle cx="246.0" cy="765.3" r="3.9" fill="#000000"/><circle cx="220.0" cy="758.5" r="4.4" fill="#000000"/></svg>